<svg width="32" height="32" viewBox="0 0 32 32" fill="none" xmlns="http://www.w3.org/2000/svg">
<path d="M29.6421 13.8327C28.5642 13.8327 27.6884 14.5334 27.3853 15.501H22.4V12.6983C22.4 12.6649 22.4 12.6315 22.4 12.5982H25.1958C25.5663 12.5982 25.9032 12.2979 25.9032 11.8975V8.86111C26.88 8.56082 27.5874 7.69329 27.5874 6.62556C27.5874 5.32427 26.5432 4.28991 25.2295 4.28991C23.9158 4.28991 22.8716 5.32427 22.8716 6.62556C22.8716 7.69329 23.5789 8.56082 24.5558 8.86111V11.2301H22.0295C21.5242 10.396 20.6147 9.82874 19.5705 9.82874H16.7411V6.5922C17.7179 6.2919 18.4253 5.42437 18.4253 4.35665C18.4253 3.05536 17.3811 2.021 16.0674 2.021C14.7537 2.021 13.7095 3.05536 13.7095 4.35665C13.7095 5.42437 14.4168 6.2919 15.3937 6.5922V9.82874H12.5642C11.52 9.82874 10.6105 10.396 10.1053 11.2301H7.57895V8.86111C8.55579 8.56082 9.26316 7.69329 9.26316 6.62556C9.26316 5.32427 8.21895 4.28991 6.90526 4.28991C5.59158 4.28991 4.54737 5.32427 4.54737 6.62556C4.54737 7.69329 5.25474 8.56082 6.23158 8.86111V11.8975C6.23158 12.2645 6.53474 12.5982 6.93895 12.5982H9.6C9.6 12.6315 9.6 12.6649 9.6 12.6983V15.501H4.61474C4.31158 14.5334 3.43579 13.8327 2.35789 13.8327C1.04421 13.8327 0 14.8671 0 16.1684C0 17.4697 1.04421 18.504 2.35789 18.504C3.43579 18.504 4.31158 17.8033 4.61474 16.8357H9.6V19.6385C9.6 19.6718 9.6 19.7052 9.6 19.7386H6.80421C6.43368 19.7386 6.09684 20.0389 6.09684 20.4393V23.509C5.12 23.8093 4.41263 24.6768 4.41263 25.7445C4.41263 27.0458 5.45684 28.0802 6.77053 28.0802C8.08421 28.0802 9.12842 27.0458 9.12842 25.7445C9.12842 24.6768 8.42105 23.8093 7.44421 23.509V21.1066H9.97053C10.4758 21.9408 11.3853 22.508 12.4295 22.508H15.3263V25.7445C14.3495 26.0448 13.6421 26.9124 13.6421 27.9801C13.6421 29.2814 14.6863 30.3157 16 30.3157C17.3137 30.3157 18.3579 29.2814 18.3579 27.9801C18.3579 26.9124 17.6505 26.0448 16.6737 25.7445V22.508H19.5032C20.5474 22.508 21.4568 21.9408 21.9621 21.1066H24.4884V23.509C23.5116 23.8093 22.8042 24.6768 22.8042 25.7445C22.8042 27.0458 23.8484 28.0802 25.1621 28.0802C26.4758 28.0802 27.52 27.0458 27.52 25.7445C27.52 24.6768 26.8126 23.8093 25.8358 23.509V20.4393C25.8358 20.0722 25.5326 19.7386 25.1284 19.7386H22.4C22.4 19.7052 22.4 19.6718 22.4 19.6385V16.8357H27.3853C27.6884 17.8033 28.5642 18.504 29.6421 18.504C30.9558 18.504 32 17.4697 32 16.1684C32 14.8671 30.9558 13.8327 29.6421 13.8327ZM24.2189 6.62556C24.2189 6.0917 24.6568 5.65794 25.1958 5.65794C25.7347 5.65794 26.1726 6.0917 26.1726 6.62556C26.1726 7.15943 25.7347 7.59319 25.1958 7.59319C24.6568 7.59319 24.2189 7.15943 24.2189 6.62556ZM5.82737 6.62556C5.82737 6.0917 6.26526 5.65794 6.80421 5.65794C7.34316 5.65794 7.78105 6.0917 7.78105 6.62556C7.78105 7.15943 7.34316 7.59319 6.80421 7.59319C6.26526 7.59319 5.82737 7.15943 5.82737 6.62556ZM2.35789 17.136C1.81895 17.136 1.38105 16.7022 1.38105 16.1684C1.38105 15.6345 1.81895 15.2007 2.35789 15.2007C2.89684 15.2007 3.33474 15.6345 3.33474 16.1684C3.33474 16.7022 2.89684 17.136 2.35789 17.136ZM7.78105 25.7445C7.78105 26.2784 7.34316 26.7122 6.80421 26.7122C6.26526 26.7122 5.82737 26.2784 5.82737 25.7445C5.82737 25.2107 6.26526 24.7769 6.80421 24.7769C7.34316 24.7769 7.78105 25.2107 7.78105 25.7445ZM15.0232 4.35665C15.0232 3.82278 15.4611 3.38902 16 3.38902C16.5389 3.38902 16.9768 3.82278 16.9768 4.35665C16.9768 4.89051 16.5389 5.32427 16 5.32427C15.4611 5.32427 15.0232 4.89051 15.0232 4.35665ZM16.9768 27.9801C16.9768 28.5139 16.5389 28.9477 16 28.9477C15.4611 28.9477 15.0232 28.5139 15.0232 27.9801C15.0232 27.4462 15.4611 27.0125 16 27.0125C16.5389 27.0125 16.9768 27.4462 16.9768 27.9801ZM18.9979 15.1006L15.8989 18.3372C15.7305 18.504 15.5284 18.6041 15.2926 18.6041C15.0568 18.6041 14.8547 18.504 14.6863 18.3372L13.0021 16.5688C12.6989 16.2351 12.6989 15.7346 13.0358 15.4009C13.3726 15.1006 13.8779 15.1006 14.2147 15.4343L15.2926 16.5688L17.7853 13.9662C18.0884 13.6325 18.6274 13.6325 18.9642 13.9328C19.3011 14.2665 19.3011 14.8003 18.9979 15.1006ZM26.1726 25.7445C26.1726 26.2784 25.7347 26.7122 25.1958 26.7122C24.6568 26.7122 24.2189 26.2784 24.2189 25.7445C24.2189 25.2107 24.6568 24.7769 25.1958 24.7769C25.7347 24.7769 26.1726 25.2107 26.1726 25.7445ZM29.6421 17.136C29.1032 17.136 28.6653 16.7022 28.6653 16.1684C28.6653 15.6345 29.1032 15.2007 29.6421 15.2007C30.1811 15.2007 30.6189 15.6345 30.6189 16.1684C30.6189 16.7022 30.1811 17.136 29.6421 17.136Z" fill="#FF540F"/>
</svg>
